<svg width="88" height="88" fill="none" xmlns="http://www.w3.org/2000/svg"><g clip-path="url(#clip0_26_369)"><path d="M66.114 60.929l15.704 15.7-5.188 5.189-15.7-15.704a32.853 32.853 0 01-20.596 7.22c-18.217 0-33-14.785-33-33 0-18.217 14.784-33 33-33 18.215 0 33 14.783 33 33a32.853 32.853 0 01-7.22 20.595zm-7.356-2.72A25.582 25.582 0 0066 40.332c0-14.182-11.487-25.666-25.666-25.666-14.183 0-25.667 11.484-25.667 25.666C14.667 54.513 26.15 66 40.333 66a25.582 25.582 0 0017.876-7.242l.55-.55zM44.653 26.311a7.334 7.334 0 109.702 9.702 14.667 14.667 0 11-9.702-9.702z" fill="#A6B7D9"/></g></svg>