<svg width="88" height="88" fill="none" xmlns="http://www.w3.org/2000/svg"><g opacity=".46" clip-path="url(#clip0_26_363)"><path d="M14.667 47.667V66h58.666V47.667H14.667zm5.932-7.334h46.802a3.666 3.666 0 003.278-5.305L66 25.667H22l-4.679 9.36a3.667 3.667 0 003.278 5.306zM80.667 49.5V77A3.666 3.666 0 0177 80.667h-3.667A3.666 3.666 0 0169.667 77v-3.667H18.333V77a3.667 3.667 0 01-3.666 3.667H11A3.666 3.666 0 017.333 77V49.5l-4.557-1.137A3.666 3.666 0 010 44.807v-2.64a1.833 1.833 0 011.833-1.834h5.5l8.973-17.944a7.333 7.333 0 016.563-4.056h6.464V11h11v7.333h7.334V11h11v7.333h6.468a7.334 7.334 0 016.56 4.056l8.972 17.944h5.5A1.833 1.833 0 0188 42.167v2.64a3.666 3.666 0 01-2.776 3.556L80.667 49.5zm-62.334 1.833c8.496 0 14.223 2.769 17.182 8.302a1.833 1.833 0 01-1.617 2.698H22a3.667 3.667 0 01-3.667-3.666v-7.334zm51.334 0v7.334A3.666 3.666 0 0166 62.333H54.102a1.833 1.833 0 01-1.614-2.698c2.952-5.537 8.68-8.302 17.179-8.302z" fill="#3E62AC"/></g></svg>