<svg width="42" height="42" fill="none" xmlns="http://www.w3.org/2000/svg"><g clip-path="url(#clip0_1_799)"><path d="M31.554 29.08l7.496 7.493-2.477 2.477-7.493-7.496A15.68 15.68 0 0119.25 35C10.556 35 3.5 27.944 3.5 19.25c0-8.694 7.056-15.75 15.75-15.75C27.944 3.5 35 10.556 35 19.25a15.68 15.68 0 01-3.446 9.83zm-3.51-1.299A12.21 12.21 0 0031.5 19.25C31.5 12.481 26.017 7 19.25 7 12.481 7 7 12.481 7 19.25c0 6.767 5.481 12.25 12.25 12.25a12.21 12.21 0 008.531-3.456l.263-.263zM21.31 12.558a3.5 3.5 0 104.631 4.63 7 7 0 11-4.63-4.63z" fill="#fff"/></g></svg>