<svg width="32" height="32" fill="none" xmlns="http://www.w3.org/2000/svg"><g clip-path="url(#clip0_1_815)"><path d="M28.724 8.664c.61 2.376.61 7.336.61 7.336s0 4.96-.61 7.336c-.338 1.313-1.329 2.347-2.584 2.696-2.278.635-10.14.635-10.14.635s-7.857 0-10.14-.635c-1.26-.355-2.249-1.387-2.584-2.696C2.667 20.96 2.667 16 2.667 16s0-4.96.61-7.336C3.614 7.35 4.605 6.317 5.86 5.968 8.143 5.333 16 5.333 16 5.333s7.862 0 10.14.635c1.26.355 2.25 1.387 2.584 2.696zm-15.39 12.003l8-4.667-8-4.667v9.334z" fill="#FB0000"/></g></svg>