<svg width="120" height="120" fill="none" xmlns="http://www.w3.org/2000/svg"><path d="M27.5 12H27v96h66V12H27.5zM95 112H25c-1.099 0-2-.901-2-2V10c0-1.099.901-2 2-2h70c1.099 0 2 .901 2 2v100c0 1.099-.901 2-2 2z" fill="#000" stroke="#F3F8FC"/><path d="M87.168 65.177l-.168.149V100c0 1.099-.901 2-2 2H35c-1.099 0-2-.901-2-2V20c0-1.099.901-2 2-2h50c1.099 0 2 .901 2 2v34.674l.168.15A6.9 6.9 0 0189.5 60a6.9 6.9 0 01-2.332 5.177zM62.5 22H62v16h21V22H62.5zm-5 76h.5V82H37v16h20.5zm0-20h.5V42H37v36h20.5zm0-40h.5V22H37v16h20.5zm25 60h.5V82H62v16h20.5zm0-20h.5V67h-.5c-3.849 0-7-3.151-7-7s3.151-7 7-7h.5V42H62v36h20.5zm-3-18c0 1.651 1.349 3 3 3s3-1.349 3-3-1.349-3-3-3-3 1.349-3 3z" fill="#000" stroke="#F3F8FC"/></svg>