<svg width="120" height="120" fill="none" xmlns="http://www.w3.org/2000/svg"><path d="M48.789 12.857a2.143 2.143 0 100-4.286 2.143 2.143 0 000 4.286zm0-3.214a1.072 1.072 0 110 2.143 1.072 1.072 0 010-2.143zm64.285 46.785a1.428 1.428 0 10.001 2.856 1.428 1.428 0 00-.001-2.856zm0 2.143a.711.711 0 01-.66-.44.71.71 0 01.155-.78.714.714 0 11.505 1.22zM70.217 35.714a1.429 1.429 0 100 2.858 1.429 1.429 0 000-2.858zm0 2.143a.714.714 0 110-1.428.714.714 0 010 1.428zm42.857-23.571a1.428 1.428 0 10.001 2.856 1.428 1.428 0 00-.001-2.856zm0 2.142a.712.712 0 01-.7-.853.708.708 0 01.561-.561.716.716 0 01.854.7.719.719 0 01-.715.714zM12.36 27.143a1.429 1.429 0 10-2.857 0 1.429 1.429 0 002.857 0zm-2.143 0a.714.714 0 111.428 0 .714.714 0 01-1.428 0zm-2.44 29.294l1.062-1.397-.67-.38-.683 1.564h-.022l-.693-1.553-.682.391 1.05 1.364v.022l-1.643-.212v.76l1.654-.212v.022l-1.06 1.363.636.403.728-1.576h.022l.67 1.564.705-.402-1.073-1.341v-.023l1.687.202v-.76l-1.687.223v-.022zM37.2 31.476l-.61.785.367.232.418-.907h.012l.387.9.405-.231-.617-.773v-.013l.971.117v-.438l-.971.128v-.012l.611-.805-.386-.218-.392.9h-.013l-.4-.895-.392.226.604.785v.013l-.946-.122v.438l.953-.122v.012zm73.732 9.747v-.745l-1.655.22v-.023l1.042-1.37-.658-.372-.669 1.534h-.022l-.679-1.524-.67.385 1.031 1.337v.022l-1.612-.209v.745l1.623-.207v.022l-1.042 1.337.625.395.713-1.547h.022l.658 1.535.69-.394-1.052-1.316v-.022l1.655.197zm-27.541-20.09l.899-1.182-.568-.322-.576 1.324h-.02l-.586-1.314-.577.331.889 1.154v.018l-1.39-.179v.643l1.4-.18v.02l-.9 1.153.54.34.615-1.333h.018l.568 1.323.596-.34-.908-1.135v-.019l1.427.17v-.642l-1.427.188v-.018zm1.005 83.153h-5.934a1.434 1.434 0 000 2.857h5.934a1.435 1.435 0 000-2.857zm-42.857 0h-5.934a1.434 1.434 0 000 2.857h5.934a1.437 1.437 0 001.319-1.429 1.434 1.434 0 00-1.32-1.428zm32.747 0H45.715a1.428 1.428 0 100 2.857H57.1v1.429h-5.67a1.428 1.428 0 100 2.857h17.857a1.429 1.429 0 000-2.857H62.9v-1.429h11.386a1.428 1.428 0 100-2.857zM57.144 86.429c.093 0 .187-.005.281-.014l25.938-2.54a2.857 2.857 0 002.028-4.531l-1.954-2.672 14.428-3.745a2.857 2.857 0 001.588-4.452l-5.866-8.019a2.856 2.856 0 00-3.516-.901l-21.075 9.848a2.858 2.858 0 00-1.096 4.275l2.1 2.87-13.708 4.297a2.857 2.857 0 00.852 5.584zm17.517-8.348l-4.455-6.09 21.075-9.848 5.866 8.019-18.5 4.802 4.438 6.067-25.938 2.54 17.514-5.49zM1.429 101.428a1.428 1.428 0 100-2.856 1.428 1.428 0 000 2.856zm6.429-2.857H5.715a1.429 1.429 0 100 2.857h2.143a1.428 1.428 0 100-2.857zm106.428 0h-2.143a1.428 1.428 0 100 2.857h2.143a1.427 1.427 0 100-2.857zm4.285 2.857a1.428 1.428 0 10.001-2.857 1.428 1.428 0 00-.001 2.857z" fill="#000"/><path d="M107.658 98.571h-16.35a26.449 26.449 0 00-11.866-50h-.002a26.279 26.279 0 00-24.258 16.293 21.984 21.984 0 00-1.03 3.436c-.167.697-.325 1.356-.524 1.964-.602 1.838-2.578 3.527-5.422 4.633-.191.074-.391.144-.585.213a2.85 2.85 0 00-1.9 2.583l-9.409 3.6a4.229 4.229 0 00-2.375 2.25 4.186 4.186 0 00-.303 2.405l-6.83 8.847-.003.005-9.118 3.039 5.7-24.701 26.518-12.561a1.43 1.43 0 00-.52-2.717l-33.572-2.143a1.43 1.43 0 00-1.445 1.888 1.427 1.427 0 001.263.964l28.058 1.79-22.15 10.493a1.428 1.428 0 00-.78.97l-6.174 26.75h-2.239a1.44 1.44 0 100 2.856h95.316a1.433 1.433 0 001.499-.834 1.434 1.434 0 00-.362-1.677 1.44 1.44 0 00-1.137-.346zM49.242 77.56c3.19-1.24 6.11-3.379 7.101-6.405.564-1.72.787-3.537 1.48-5.2a23.518 23.518 0 1111.66 30.373c-1.623-.762-3.002-1.955-4.569-2.847a8.426 8.426 0 00-4.21-1.028 14.944 14.944 0 00-5.325 1.093c-.165.064-.33.135-.495.204l-6.128-15.697a1.43 1.43 0 00-.138-.264c.208-.074.42-.15.624-.229zm18.36 21.012H46.475l6.519-2.493a2.823 2.823 0 002.844.368c.19-.08.384-.164.576-.238a12.117 12.117 0 014.288-.899 5.6 5.6 0 012.798.654c.552.315 1.108.695 1.697 1.098a26.37 26.37 0 002.403 1.51zM36.548 84.7a1.391 1.391 0 01.784-.739l9.195-3.517 5.038 13.121-3.889 1.487-3.958-10.554a1.43 1.43 0 00-2.314-.544 1.428 1.428 0 00-.361 1.547l3.964 10.572-2.546.974a1.42 1.42 0 01-1.833-.795l-4.103-10.508a1.349 1.349 0 01.023-1.044zm-1.766 4.436l2.338 5.99-6.477-.63 4.139-5.36zm-6.08 8.042l9.714.943c.108.158.227.308.355.45h-14.25l4.18-1.393z" fill="#000"/></svg>