<svg width="120" height="120" fill="none" xmlns="http://www.w3.org/2000/svg"><path d="M60.66 63.068a3.067 3.067 0 100-6.135 3.067 3.067 0 000 6.135z" fill="#000"/><path d="M60.662 102.825a42.828 42.828 0 0042-51.181 42.828 42.828 0 00-58.39-31.21A42.825 42.825 0 0017.834 60a42.874 42.874 0 0042.827 42.825zm0-81.9A39.075 39.075 0 1121.585 60a39.118 39.118 0 0139.077-39.075z" fill="#000"/><path d="M35.503 84.606a1.875 1.875 0 001.54-.328L53.53 71.996l-2.012 13.482a7.707 7.707 0 007.313 8.838l9.114.375h.077a1.874 1.874 0 001.864-2.092l-2.402-20.425 10.67 8.488a7.718 7.718 0 006.081 1.564 7.715 7.715 0 005.227-3.476l4.876-7.708a1.875 1.875 0 00-.842-2.725l-18.872-8.13 12.686-4.996a7.713 7.713 0 003.988-10.754l-4.236-8.077a1.872 1.872 0 00-1.245-.956 1.852 1.852 0 00-1.537.324L67.792 48l2.012-13.483a7.705 7.705 0 00-7.312-8.839l-9.117-.375a1.894 1.894 0 00-1.453.598 1.874 1.874 0 00-.485 1.5l2.394 20.427-10.667-8.49a7.71 7.71 0 00-11.308 1.912l-4.875 7.708a1.874 1.874 0 00.842 2.724l18.885 8.14-12.688 4.997a7.714 7.714 0 00-4 10.753l4.238 8.077a1.863 1.863 0 001.245.957zm25.159-31.941A7.335 7.335 0 1153.325 60a7.344 7.344 0 017.337-7.335zm-1.688 37.909a3.958 3.958 0 01-3.75-4.54l2.3-15.408c1.955.586 4.034.61 6 .067l2.365 20.162-6.915-.281zm27.32-13.83a3.956 3.956 0 01-5.812.982l-12.195-9.701a11.085 11.085 0 003.072-5.17l18.64 8.037-3.704 5.852zm-1.533-36.705l3.218 6.133a3.954 3.954 0 01-2.054 5.518l-14.499 5.715a11.06 11.06 0 00-2.938-5.25L84.76 40.039zM62.344 29.426a3.954 3.954 0 013.75 4.54l-2.301 15.407a10.858 10.858 0 00-6.01-.066l-2.362-20.162 6.922.281zm-27.32 13.83a3.957 3.957 0 015.813-.982l12.203 9.703a11.063 11.063 0 00-3.072 5.167l-18.656-8.036 3.713-5.852zm-1.887 27.356a3.907 3.907 0 012.25-2.302l14.5-5.715a11.063 11.063 0 002.939 5.25L36.562 79.961l-3.217-6.133a3.91 3.91 0 01-.208-3.216z" fill="#000"/><path d="M12.563 10.037a1.875 1.875 0 00-1.876 1.875v96.176a1.873 1.873 0 001.876 1.875h96.187a1.875 1.875 0 001.875-1.875V11.912a1.877 1.877 0 00-1.875-1.875H12.562zm94.312 96.176H14.437V13.787h92.438v92.426z" fill="#000"/><path d="M98.664 24.87a3.374 3.374 0 100-6.748 3.374 3.374 0 000 6.748zm-76.009 0a3.373 3.373 0 100-6.746 3.373 3.373 0 000 6.746zm76.009 70.26a3.375 3.375 0 100 6.749 3.375 3.375 0 000-6.75zm-76.009 6.746a3.373 3.373 0 100-6.746 3.373 3.373 0 000 6.746z" fill="#000"/></svg>