<svg width="120" height="120" fill="none" xmlns="http://www.w3.org/2000/svg"><path d="M99.307 41.559h0l14.4 69.599a2.157 2.157 0 01-.44 1.795l-.002.002a2.14 2.14 0 01-1.665.795H8.4a2.14 2.14 0 01-1.666-.795 2.166 2.166 0 01-.442-1.797s0 0 0 0l14.4-69.6h0A2.154 2.154 0 0122.8 39.85h74.4c1.021 0 1.903.721 2.107 1.709zm2.141 33.091h.307l-.063-.3-6.204-30-.04-.2H62.15v30.5h39.298zm-76.692-30.5h-.204l-.041.2-6.204 30-.062.3h39.604v-30.5H24.757zm-7.044 34.597l-.288-.139-.065.313-6.252 30.228-.062.301H57.85v-30.5H18.6c-.32 0-.62-.075-.888-.203zM62.15 109.2v.25h46.805l-.063-.301-6.252-30.228-.064-.313-.289.139a2.038 2.038 0 01-.887.203H62.15v30.25zm14.845-94.188l-.195-.244-.196.244a10.247 10.247 0 01-1.593 1.593l-.24.193.238.195a10.785 10.785 0 011.595 1.595l.193.241.196-.239a10.8 10.8 0 011.595-1.595l.24-.193-.238-.195a10.791 10.791 0 01-1.595-1.595zm-33.6 4.8l-.195-.244-.196.244a10.242 10.242 0 01-1.593 1.593l-.24.193.238.195a10.785 10.785 0 011.595 1.595l.193.241.196-.239a10.8 10.8 0 011.595-1.595l.24-.193-.238-.195a10.791 10.791 0 01-1.595-1.595zM74.65 25.2c0-3.45-2.8-6.25-6.25-6.25a2.157 2.157 0 01-2.15-2.15c0-1.182.968-2.15 2.15-2.15 3.45 0 6.25-2.8 6.25-6.25 0-1.182.968-2.15 2.15-2.15 1.181 0 2.15.968 2.15 2.15 0 3.45 2.8 6.25 6.25 6.25 1.181 0 2.15.968 2.15 2.15s-.968 2.15-2.15 2.15c-3.45 0-6.25 2.8-6.25 6.25 0 1.182-.969 2.15-2.15 2.15a2.157 2.157 0 01-2.15-2.15zM41.05 30c0-3.45-2.8-6.25-6.25-6.25a2.157 2.157 0 01-2.15-2.15c0-1.182.968-2.15 2.15-2.15 3.45 0 6.25-2.8 6.25-6.25 0-1.182.968-2.15 2.15-2.15 1.181 0 2.15.968 2.15 2.15 0 3.45 2.8 6.25 6.25 6.25 1.181 0 2.15.968 2.15 2.15s-.968 2.15-2.15 2.15c-3.45 0-6.25 2.8-6.25 6.25 0 1.182-.968 2.15-2.15 2.15A2.157 2.157 0 0141.05 30z" fill="#000" stroke="#fff" stroke-width=".5"/></svg>