<svg width="120" height="120" fill="none" xmlns="http://www.w3.org/2000/svg"><mask id="a" fill="#fff"><path d="M36.4 50.575a4.7 4.7 0 014.725 4.7V71.8h9.45V55.275a4.7 4.7 0 014.7-4.7h9.45a4.7 4.7 0 014.7 4.7V71.8h9.45V55.275a4.701 4.701 0 014.725-4.7h9.425a4.725 4.725 0 014.725 4.7V71.8H100a2.377 2.377 0 012.414 3.327 2.387 2.387 0 01-1.433 1.293 2.38 2.38 0 01-.981.105h-2.25V102.5a4.725 4.725 0 01-4.725 4.725H83.6a4.711 4.711 0 01-3.349-1.377 4.692 4.692 0 01-1.376-3.348V76.525h-9.45V102.5a4.698 4.698 0 01-4.7 4.725h-9.45a4.696 4.696 0 01-4.35-2.919 4.698 4.698 0 01-.35-1.806V76.525h-9.45V102.5a4.702 4.702 0 01-4.725 4.725h-9.425a4.726 4.726 0 01-4.725-4.725V76.525H20a2.5 2.5 0 01-2.5-2.375A2.5 2.5 0 0120 71.8h2.25V55.275a4.725 4.725 0 014.725-4.7H36.4zm-2.35 4.7h-4.725a2.5 2.5 0 00-2.35 2.375V100a2.352 2.352 0 002.35 2.35h4.725A2.353 2.353 0 0036.4 100V57.5a2.5 2.5 0 00-2.35-2.225zm28.3 0h-4.7a2.5 2.5 0 00-2.375 2.375V100a2.5 2.5 0 002.375 2.35h4.7a2.5 2.5 0 002.375-2.35V57.5a2.5 2.5 0 00-2.375-2.225zm28.325 0H85.95a2.5 2.5 0 00-2.35 2.375V100a2.352 2.352 0 002.35 2.35h4.725a2.353 2.353 0 002.35-2.35V57.5a2.5 2.5 0 00-2.35-2.225zM42.5 13.975a2.15 2.15 0 01-.875 2.9 5.001 5.001 0 000 9.2 9.45 9.45 0 015.425 8.35 9.275 9.275 0 01-5 8.075l-.525.3a2.158 2.158 0 11-2.3-3.65 5.25 5.25 0 003.225-4.625 5.2 5.2 0 00-3.175-4.575 9.25 9.25 0 01-5.475-8.4 9.1 9.1 0 015-8.075l.525-.3a2.15 2.15 0 013.175.8zm34.6 0a2.15 2.15 0 01-.875 2.9 5.001 5.001 0 000 9.2 9.45 9.45 0 015.425 8.35 9.35 9.35 0 01-5 8.075l-.525.3a2.158 2.158 0 11-2.3-3.65 5.3 5.3 0 003.225-4.625 5.25 5.25 0 00-3.175-4.575 9.15 9.15 0 01-.525-16.5l.525-.275a2.15 2.15 0 012.9.9l.325-.1zm-17.3 0a2.15 2.15 0 01-.875 2.9 5.001 5.001 0 000 9.2 9.45 9.45 0 015.425 8.35 9.275 9.275 0 01-5 8.075l-.525.3a2.158 2.158 0 11-2.225-3.7 5.25 5.25 0 003.4-4.675 5.2 5.2 0 00-3.175-4.575 9.274 9.274 0 01-5.475-8.4 9.15 9.15 0 015-8.1l.525-.275a2.15 2.15 0 012.9.9h.025z"/></mask><path d="M36.4 50.575a4.7 4.7 0 014.725 4.7V71.8h9.45V55.275a4.7 4.7 0 014.7-4.7h9.45a4.7 4.7 0 014.7 4.7V71.8h9.45V55.275a4.701 4.701 0 014.725-4.7h9.425a4.725 4.725 0 014.725 4.7V71.8H100a2.377 2.377 0 012.414 3.327 2.387 2.387 0 01-1.433 1.293 2.38 2.38 0 01-.981.105h-2.25V102.5a4.725 4.725 0 01-4.725 4.725H83.6a4.711 4.711 0 01-3.349-1.377 4.692 4.692 0 01-1.376-3.348V76.525h-9.45V102.5a4.698 4.698 0 01-4.7 4.725h-9.45a4.696 4.696 0 01-4.35-2.919 4.698 4.698 0 01-.35-1.806V76.525h-9.45V102.5a4.702 4.702 0 01-4.725 4.725h-9.425a4.726 4.726 0 01-4.725-4.725V76.525H20a2.5 2.5 0 01-2.5-2.375A2.5 2.5 0 0120 71.8h2.25V55.275a4.725 4.725 0 014.725-4.7H36.4zm-2.35 4.7h-4.725a2.5 2.5 0 00-2.35 2.375V100a2.352 2.352 0 002.35 2.35h4.725A2.353 2.353 0 0036.4 100V57.5a2.5 2.5 0 00-2.35-2.225zm28.3 0h-4.7a2.5 2.5 0 00-2.375 2.375V100a2.5 2.5 0 002.375 2.35h4.7a2.5 2.5 0 002.375-2.35V57.5a2.5 2.5 0 00-2.375-2.225zm28.325 0H85.95a2.5 2.5 0 00-2.35 2.375V100a2.352 2.352 0 002.35 2.35h4.725a2.353 2.353 0 002.35-2.35V57.5a2.5 2.5 0 00-2.35-2.225zM42.5 13.975a2.15 2.15 0 01-.875 2.9 5.001 5.001 0 000 9.2 9.45 9.45 0 015.425 8.35 9.275 9.275 0 01-5 8.075l-.525.3a2.158 2.158 0 11-2.3-3.65 5.25 5.25 0 003.225-4.625 5.2 5.2 0 00-3.175-4.575 9.25 9.25 0 01-5.475-8.4 9.1 9.1 0 015-8.075l.525-.3a2.15 2.15 0 013.175.8zm34.6 0a2.15 2.15 0 01-.875 2.9 5.001 5.001 0 000 9.2 9.45 9.45 0 015.425 8.35 9.35 9.35 0 01-5 8.075l-.525.3a2.158 2.158 0 11-2.3-3.65 5.3 5.3 0 003.225-4.625 5.25 5.25 0 00-3.175-4.575 9.15 9.15 0 01-.525-16.5l.525-.275a2.15 2.15 0 012.9.9l.325-.1zm-17.3 0a2.15 2.15 0 01-.875 2.9 5.001 5.001 0 000 9.2 9.45 9.45 0 015.425 8.35 9.275 9.275 0 01-5 8.075l-.525.3a2.158 2.158 0 11-2.225-3.7 5.25 5.25 0 003.4-4.675 5.2 5.2 0 00-3.175-4.575 9.274 9.274 0 01-5.475-8.4 9.15 9.15 0 015-8.1l.525-.275a2.15 2.15 0 012.9.9h.025z" fill="#000" stroke="#F3F8FC" stroke-width="2" mask="url(#a)"/></svg>