<svg width="120" height="120" fill="none" xmlns="http://www.w3.org/2000/svg"><mask id="a" fill="#fff"><path d="M18.662 23.902l-.677 3.904c-.2 1.196 1.095 2.152 2.171 1.574l3.506-1.833 3.507 1.833c1.075.558 2.37-.378 2.171-1.574l-.677-3.904 2.849-2.75a1.47 1.47 0 00.378-1.534 1.491 1.491 0 00-1.215-1.016l-3.905-.577-1.753-3.546c-.538-1.096-2.151-1.096-2.69 0l-1.753 3.546-3.904.577c-1.196.18-1.694 1.714-.837 2.55l2.829 2.75zm3.128-3.029c.478-.08.916-.378 1.135-.816l.757-1.534.757 1.534c.22.438.638.757 1.136.816l1.693.24-1.215 1.195a1.499 1.499 0 00-.438 1.335l.279 1.693-1.514-.797a1.453 1.453 0 00-1.395 0l-1.514.797.279-1.693c.08-.479-.08-.977-.438-1.335l-1.216-1.195 1.694-.24zm21.934 27.831l-.678-3.904 2.83-2.77c.876-.856.378-2.37-.837-2.55l-3.905-.577-1.753-3.546c-.538-1.096-2.152-1.096-2.69 0l-1.753 3.546-3.905.578c-1.195.179-1.693 1.713-.836 2.55l2.829 2.769-.678 3.904c-.199 1.196 1.096 2.152 2.172 1.574l3.506-1.833 3.506 1.833c1.096.578 2.391-.378 2.192-1.574zm-3.327-5.478a1.499 1.499 0 00-.438 1.334l.298 1.694-1.514-.797a1.454 1.454 0 00-1.394 0l-1.514.797.279-1.694c.08-.478-.08-.976-.439-1.334L34.46 42.03l1.693-.24c.479-.08.917-.378 1.136-.816l.757-1.534.757 1.534c.22.438.638.757 1.136.816l1.693.24-1.235 1.195zm-14.025 27.83c1.076.559 2.37-.378 2.171-1.573l-.677-3.905 2.829-2.769c.876-.857.378-2.37-.837-2.55l-3.905-.578-1.753-3.546c-.538-1.096-2.151-1.096-2.69 0l-1.752 3.546-3.905.578c-1.195.18-1.693 1.713-.837 2.55l2.85 2.77-.678 3.904c-.1.558.14 1.135.598 1.454a1.499 1.499 0 001.573.12l3.506-1.833 3.507 1.833zm-5.718-4.063l.28-1.694a1.535 1.535 0 00-.44-1.335L19.28 62.77l1.693-.239a1.56 1.56 0 001.136-.817l.756-1.534.758 1.534c.219.439.637.757 1.135.817l1.694.24-1.216 1.194a1.498 1.498 0 00-.438 1.335l.279 1.694-1.514-.797a1.445 1.445 0 00-1.395 0l-1.514.797zM55.12 80.639c1.076.558 2.37-.378 2.172-1.574l-.678-3.904 2.83-2.77c.876-.856.378-2.37-.838-2.55l-3.904-.577-1.753-3.546c-.538-1.096-2.152-1.096-2.69 0l-1.753 3.546-3.905.577c-1.195.18-1.693 1.714-.836 2.55l2.828 2.77-.677 3.904c-.2 1.196 1.096 2.152 2.172 1.574l3.506-1.833 3.526 1.833zm-5.718-4.064l.28-1.693c.08-.479-.08-.977-.439-1.335l-1.215-1.195 1.693-.24c.478-.08.917-.378 1.136-.816l.757-1.534.757 1.534c.219.438.637.757 1.135.816l1.694.24-1.215 1.195a1.499 1.499 0 00-.439 1.335l.28 1.693-1.515-.797a1.446 1.446 0 00-1.395 0l-1.514.797zM36.254 90.6l-3.905-.578-1.753-3.546c-.538-1.096-2.151-1.096-2.69 0l-1.752 3.546-3.905.578c-1.195.18-1.693 1.713-.837 2.55l2.83 2.77-.678 3.904c-.2 1.195 1.096 2.151 2.171 1.574l3.506-1.833 3.507 1.833c1.076.557 2.37-.379 2.171-1.574l-.677-3.905 2.829-2.769a1.51 1.51 0 00.378-1.534 1.44 1.44 0 00-1.195-1.016zm-4.642 3.725a1.499 1.499 0 00-.438 1.335l.279 1.694-1.514-.797a1.446 1.446 0 00-1.395 0l-1.514.796.28-1.693a1.535 1.535 0 00-.44-1.335l-1.214-1.195 1.693-.239c.478-.08.916-.379 1.136-.817l.756-1.534.758 1.534c.219.439.637.757 1.135.817l1.694.24-1.216 1.194z"/></mask><path d="M18.662 23.902l-.677 3.904c-.2 1.196 1.095 2.152 2.171 1.574l3.506-1.833 3.507 1.833c1.075.558 2.37-.378 2.171-1.574l-.677-3.904 2.849-2.75a1.47 1.47 0 00.378-1.534 1.491 1.491 0 00-1.215-1.016l-3.905-.577-1.753-3.546c-.538-1.096-2.151-1.096-2.69 0l-1.753 3.546-3.904.577c-1.196.18-1.694 1.714-.837 2.55l2.829 2.75zm3.128-3.029c.478-.08.916-.378 1.135-.816l.757-1.534.757 1.534c.22.438.638.757 1.136.816l1.693.24-1.215 1.195a1.499 1.499 0 00-.438 1.335l.279 1.693-1.514-.797a1.453 1.453 0 00-1.395 0l-1.514.797.279-1.693c.08-.479-.08-.977-.438-1.335l-1.216-1.195 1.694-.24zm21.934 27.831l-.678-3.904 2.83-2.77c.876-.856.378-2.37-.837-2.55l-3.905-.577-1.753-3.546c-.538-1.096-2.152-1.096-2.69 0l-1.753 3.546-3.905.578c-1.195.179-1.693 1.713-.836 2.55l2.829 2.769-.678 3.904c-.199 1.196 1.096 2.152 2.172 1.574l3.506-1.833 3.506 1.833c1.096.578 2.391-.378 2.192-1.574zm-3.327-5.478a1.499 1.499 0 00-.438 1.334l.298 1.694-1.514-.797a1.454 1.454 0 00-1.394 0l-1.514.797.279-1.694c.08-.478-.08-.976-.439-1.334L34.46 42.03l1.693-.24c.479-.08.917-.378 1.136-.816l.757-1.534.757 1.534c.22.438.638.757 1.136.816l1.693.24-1.235 1.195zm-14.025 27.83c1.076.559 2.37-.378 2.171-1.573l-.677-3.905 2.829-2.769c.876-.857.378-2.37-.837-2.55l-3.905-.578-1.753-3.546c-.538-1.096-2.151-1.096-2.69 0l-1.752 3.546-3.905.578c-1.195.18-1.693 1.713-.837 2.55l2.85 2.77-.678 3.904c-.1.558.14 1.135.598 1.454a1.499 1.499 0 001.573.12l3.506-1.833 3.507 1.833zm-5.718-4.063l.28-1.694a1.535 1.535 0 00-.44-1.335L19.28 62.77l1.693-.239a1.56 1.56 0 001.136-.817l.756-1.534.758 1.534c.219.439.637.757 1.135.817l1.694.24-1.216 1.194a1.498 1.498 0 00-.438 1.335l.279 1.694-1.514-.797a1.445 1.445 0 00-1.395 0l-1.514.797zM55.12 80.639c1.076.558 2.37-.378 2.172-1.574l-.678-3.904 2.83-2.77c.876-.856.378-2.37-.838-2.55l-3.904-.577-1.753-3.546c-.538-1.096-2.152-1.096-2.69 0l-1.753 3.546-3.905.577c-1.195.18-1.693 1.714-.836 2.55l2.828 2.77-.677 3.904c-.2 1.196 1.096 2.152 2.172 1.574l3.506-1.833 3.526 1.833zm-5.718-4.064l.28-1.693c.08-.479-.08-.977-.439-1.335l-1.215-1.195 1.693-.24c.478-.08.917-.378 1.136-.816l.757-1.534.757 1.534c.219.438.637.757 1.135.816l1.694.24-1.215 1.195a1.499 1.499 0 00-.439 1.335l.28 1.693-1.515-.797a1.446 1.446 0 00-1.395 0l-1.514.797zM36.254 90.6l-3.905-.578-1.753-3.546c-.538-1.096-2.151-1.096-2.69 0l-1.752 3.546-3.905.578c-1.195.18-1.693 1.713-.837 2.55l2.83 2.77-.678 3.904c-.2 1.195 1.096 2.151 2.171 1.574l3.506-1.833 3.507 1.833c1.076.557 2.37-.379 2.171-1.574l-.677-3.905 2.829-2.769a1.51 1.51 0 00.378-1.534 1.44 1.44 0 00-1.195-1.016zm-4.642 3.725a1.499 1.499 0 00-.438 1.335l.279 1.694-1.514-.797a1.446 1.446 0 00-1.395 0l-1.514.796.28-1.693a1.535 1.535 0 00-.44-1.335l-1.214-1.195 1.693-.239c.478-.08.916-.379 1.136-.817l.756-1.534.758 1.534c.219.439.637.757 1.135.817l1.694.24-1.216 1.194z" fill="#000" stroke="#F3F8FC" stroke-width=".6" mask="url(#a)"/><path d="M91.935 53.705h-38.43v-43.21c0-.838-.677-1.495-1.494-1.495H10.494C9.677 9 9 9.677 9 10.494v99.012c0 .837.677 1.494 1.494 1.494h81.44c.838 0 1.495-.677 1.495-1.494v-17.73C103.25 91.017 111 82.77 111 72.77c0-10.499-8.546-19.065-19.065-19.065zm-1.514 54.307H11.988V11.988h38.53v43.23c0 .817.676 1.495 1.493 1.495 8.866 0 16.077 7.212 16.077 16.077 0 8.865-7.211 16.077-16.077 16.077-.817 0-1.494.677-1.494 1.494 0 .837.677 1.494 1.494 1.494H77.5l-4.152.22c-1.196.178-1.694 1.712-.837 2.55l2.829 2.768-.678 3.905c-.199 1.195 1.096 2.152 2.172 1.574l3.506-1.833 3.507 1.833c1.075.558 2.37-.379 2.171-1.574l-.677-3.905 2.829-2.769c.876-.856.378-2.37-.837-2.55l-3.833-.219h6.92v16.157zm-8.148-10.918l.279 1.694-1.515-.797a1.454 1.454 0 00-1.394 0l-1.514.797.299-1.694c.08-.478-.08-.976-.439-1.334l-1.215-1.196 1.694-.239c.478-.08.916-.378 1.135-.816l.757-1.534.757 1.534c.22.438.638.757 1.136.816l1.693.24-1.215 1.195a1.494 1.494 0 00-.458 1.334zm9.662-8.247H62.25c5.3-3.387 8.826-9.324 8.826-16.077 0-6.754-3.527-12.67-8.826-16.077h29.684c8.865 0 16.077 7.212 16.077 16.077 0 8.865-7.212 16.077-16.077 16.077z" fill="#000"/><path d="M91.935 53.705h-38.43v-43.21c0-.838-.677-1.495-1.494-1.495H10.494C9.677 9 9 9.677 9 10.494v99.012c0 .837.677 1.494 1.494 1.494h81.44c.838 0 1.495-.677 1.495-1.494v-17.73C103.25 91.017 111 82.77 111 72.77c0-10.499-8.546-19.065-19.065-19.065zm-1.514 54.307H11.988V11.988h38.53v43.23c0 .817.676 1.495 1.493 1.495 8.866 0 16.077 7.212 16.077 16.077 0 8.865-7.211 16.077-16.077 16.077-.817 0-1.494.677-1.494 1.494 0 .837.677 1.494 1.494 1.494H77.5l-4.152.22c-1.196.178-1.694 1.712-.837 2.55l2.829 2.768-.678 3.905c-.199 1.195 1.096 2.152 2.172 1.574l3.506-1.833 3.507 1.833c1.075.558 2.37-.379 2.171-1.574l-.677-3.905 2.829-2.769c.876-.856.378-2.37-.837-2.55l-3.833-.219h6.92v16.157zm-8.148-10.918l.279 1.694-1.515-.797a1.454 1.454 0 00-1.394 0l-1.514.797.299-1.694c.08-.478-.08-.976-.439-1.334l-1.215-1.196 1.694-.239c.478-.08.916-.378 1.135-.816l.757-1.534.757 1.534c.22.438.638.757 1.136.816l1.693.24-1.215 1.195a1.494 1.494 0 00-.458 1.334zm9.662-8.247H62.25c5.3-3.387 8.826-9.324 8.826-16.077 0-6.754-3.527-12.67-8.826-16.077h29.684c8.865 0 16.077 7.212 16.077 16.077 0 8.865-7.212 16.077-16.077 16.077z" stroke="#F3F8FC"/></svg>