<svg width="120" height="120" fill="none" xmlns="http://www.w3.org/2000/svg"><path d="M26.25 95.625h32.813c.187.188.562.188.937.188s.563-.188.938-.188H93.75c1.125 0 1.875-.75 1.875-1.875v-67.5c0-1.125-.75-1.875-1.875-1.875h-67.5c-1.125 0-1.875.75-1.875 1.875v67.5c0 1.125.75 1.875 1.875 1.875zm35.625-67.5h30v63.75h-30v-63.75zm-33.75 0h30v63.75h-30v-63.75z" fill="#231F20"/><path d="M69.563 63.75L88.313 45c.75-.75.75-1.875 0-2.625s-1.876-.75-2.626 0l-18.75 18.75c-.75.75-.75 1.875 0 2.625.376.375.938.563 1.313.563s.938-.188 1.313-.563zm17.25-7.5L68.063 75c-.75.75-.75 1.875 0 2.625.374.375.937.563 1.312.563s.938-.188 1.313-.563l18.75-18.75c.75-.75.75-1.875 0-2.625s-1.876-.75-2.626 0zm-52.876 7.5L52.688 45c.75-.75.75-1.875 0-2.625s-1.874-.75-2.624 0l-18.75 18.75c-.75.75-.75 1.875 0 2.625.375.375.937.563 1.312.563s.938-.188 1.313-.563zm17.25-7.5L32.438 75c-.75.75-.75 1.875 0 2.625.376.375.938.563 1.313.563s.938-.188 1.313-.563l18.75-18.75c.75-.75.75-1.875 0-2.625s-1.876-.75-2.626 0z" fill="#231F20"/><path d="M105 99.375h-1.875v-78.75H105c3.188 0 5.625-2.438 5.625-5.625 0-3.188-2.437-5.625-5.625-5.625H15c-3.188 0-5.625 2.438-5.625 5.625 0 3.188 2.438 5.625 5.625 5.625h1.875v78.75H15c-3.188 0-5.625 2.437-5.625 5.625s2.438 5.625 5.625 5.625h90c3.188 0 5.625-2.437 5.625-5.625s-2.437-5.625-5.625-5.625zm-90-82.5c-1.125 0-1.875-.75-1.875-1.875s.75-1.875 1.875-1.875h90c1.125 0 1.875.75 1.875 1.875s-.75 1.875-1.875 1.875H15zm84.375 3.75v78.75h-78.75v-78.75h78.75zm5.625 86.25H15c-1.125 0-1.875-.75-1.875-1.875s.75-1.875 1.875-1.875h90c1.125 0 1.875.75 1.875 1.875s-.75 1.875-1.875 1.875z" fill="#231F20"/></svg>